# xmcd
#
# Track frame offsets:
#  150
#  14894
#  30610
#  46602
#  68454
#  80967
#  93190
#  112303
#  125805
#  138036
#  155823
#
# Disc length: 2294 seconds
#
# Revision: 0
# Processed by: cddbd v1.5.1PL2 Copyright (c) Steve Scherf et al.
# Submitted via: Collectorz.com_Music_Collector 6.9
#
DISCID=9608f40b
DTITLE=5th Dimension, The - Greatest Hits On Earth
DYEAR=1972
DGENRE=Rock
TTITLE0=Last Night I Didn't Get To Sleep At All
TTITLE1=Stoned Soul Picnic
TTITLE2=One Less Bell To Answer
TTITLE3=Aquarius - Let The Sunshine In
TTITLE4=Wedding Bell Blues
TTITLE5=Save The Country
TTITLE6=Love's Lines, Angles and Rhymes
TTITLE7=Puppet Man
TTITLE8=Up Up and Away
TTITLE9=Never My Love
TTITLE10=Together Let's Find Love
EXTD=
EXTT0=
EXTT1=
EXTT2=
EXTT3=
EXTT4=
EXTT5=
EXTT6=
EXTT7=
EXTT8=
EXTT9=
EXTT10=
PLAYORDER=
